<svg width="63" height="63" viewBox="0 0 63 63" fill="none" xmlns="http://www.w3.org/2000/svg">
<circle cx="31.5" cy="31.5" r="31.5" fill="white"/>
<path d="M41.7039 24.6889L30.1394 37.9362C29.6724 38.471 29.0777 38.8356 28.4302 38.9841L23.5103 40.1111L24.4942 34.4754C24.6237 33.7338 24.942 33.0526 25.4089 32.5177L36.9736 19.2704M41.7039 24.6889L44.0691 21.9796C44.7222 21.2315 44.7222 20.0185 44.0691 19.2704L41.7039 16.5611C41.0508 15.813 39.9919 15.813 39.3388 16.5611L36.9736 19.2704M41.7039 24.6889L36.9736 19.2704L41.7039 24.6889Z" fill="#D9D9D9"/>
<path d="M41.7039 24.6889L30.1394 37.9362C29.6724 38.471 29.0777 38.8356 28.4302 38.9841L23.5103 40.1111L24.4942 34.4754C24.6237 33.7338 24.942 33.0526 25.4089 32.5177L36.9736 19.2704M41.7039 24.6889L44.0691 21.9796C44.7222 21.2315 44.7222 20.0185 44.0691 19.2704L41.7039 16.5611C41.0508 15.813 39.9919 15.813 39.3388 16.5611L36.9736 19.2704M41.7039 24.6889L36.9736 19.2704" stroke="black" stroke-linecap="round" stroke-linejoin="round"/>
<path d="M19 47.0002H43.0556H19Z" fill="#D9D9D9"/>
<path d="M19 47.0002H43.0556" stroke="black" stroke-linecap="round" stroke-linejoin="round"/>
</svg>
