<svg width="14" height="17" viewBox="0 0 14 17" fill="none" xmlns="http://www.w3.org/2000/svg">
<path d="M7.875 0.850001L8.49371 0.248958C8.32965 0.0895575 8.10705 1.48957e-06 7.875 1.48957e-06V0.850001ZM13.125 5.95H14C14 5.72456 13.9078 5.50837 13.7437 5.34896L13.125 5.95ZM5.25 9.35C5.25 8.88054 4.85825 8.5 4.375 8.5C3.89176 8.5 3.5 8.88054 3.5 9.35H5.25ZM3.5 11.9C3.5 12.3695 3.89176 12.75 4.375 12.75C4.85825 12.75 5.25 12.3695 5.25 11.9H3.5ZM3.9375 5.95C3.45426 5.95 3.0625 6.33056 3.0625 6.8C3.0625 7.26946 3.45426 7.65 3.9375 7.65V5.95ZM4.8125 7.65C5.29576 7.65 5.6875 7.26946 5.6875 6.8C5.6875 6.33056 5.29576 5.95 4.8125 5.95V7.65ZM3.9375 3.4C3.45426 3.4 3.0625 3.78056 3.0625 4.25C3.0625 4.71944 3.45426 5.1 3.9375 5.1V3.4ZM4.8125 5.1C5.29576 5.1 5.6875 4.71944 5.6875 4.25C5.6875 3.78056 5.29576 3.4 4.8125 3.4V5.1ZM7 0.850001V4.59H8.75V0.850001H7ZM9.275 6.8H13.125V5.1H9.275V6.8ZM7 4.59C7 4.814 6.9993 5.03311 7.01479 5.2175C7.03115 5.4118 7.06974 5.64108 7.19075 5.87178L8.75 5.1C8.77564 5.14888 8.76654 5.16824 8.75901 5.07907C8.7507 4.97996 8.75 4.84205 8.75 4.59H7ZM9.275 5.1C9.01556 5.1 8.87355 5.09934 8.77152 5.09125C8.67974 5.08396 8.69969 5.0751 8.75 5.1L7.9555 6.61471C8.19298 6.73226 8.42905 6.76972 8.62908 6.78559C8.81886 6.80068 9.04444 6.8 9.275 6.8V5.1ZM7.19075 5.87178C7.35849 6.19166 7.62624 6.45173 7.9555 6.61471L8.75 5.1L7.19075 5.87178ZM3.5 9.35V11.9H5.25V9.35H3.5ZM3.9375 7.65H4.8125V5.95H3.9375V7.65ZM3.9375 5.1H4.8125V3.4H3.9375V5.1ZM7.875 1.48957e-06H3.675V1.7H7.875V1.48957e-06ZM1.53338e-06 3.57V13.43H1.75V3.57H1.53338e-06ZM3.675 17H10.325V15.3H3.675V17ZM14 13.43V5.95H12.25V13.43H14ZM13.7437 5.34896L8.49371 0.248958L7.25629 1.45104L12.5063 6.55104L13.7437 5.34896ZM10.325 17C10.8006 17 11.21 17.0007 11.5456 16.974C11.8916 16.9465 12.2356 16.8859 12.5667 16.722L11.7722 15.2073C11.7289 15.2288 11.6408 15.2608 11.4032 15.2797C11.1552 15.2993 10.8295 15.3 10.325 15.3V17ZM12.25 13.43C12.25 13.9201 12.2493 14.2365 12.2291 14.4774C12.2097 14.7082 12.1767 14.7938 12.1546 14.8359L13.7139 15.6077C13.8826 15.2861 13.945 14.9518 13.9732 14.6157C14.0007 14.2897 14 13.8921 14 13.43H12.25ZM12.5667 16.722C13.0607 16.4776 13.4622 16.0875 13.7139 15.6077L12.1546 14.8359C12.0707 14.9959 11.9369 15.1258 11.7722 15.2073L12.5667 16.722ZM1.53338e-06 13.43C1.53338e-06 13.8921 -0.000680941 14.2897 0.0267503 14.6157C0.0550128 14.9518 0.117418 15.2861 0.286109 15.6077L1.84537 14.8359C1.82333 14.7938 1.79036 14.7082 1.77094 14.4774C1.75068 14.2365 1.75 13.9201 1.75 13.43H1.53338e-06ZM3.675 15.3C3.17052 15.3 2.84477 15.2993 2.59686 15.2797C2.35915 15.2608 2.27102 15.2288 2.22776 15.2073L1.43328 16.722C1.76436 16.8859 2.10843 16.9465 2.45435 16.974C2.79006 17.0007 3.19939 17 3.675 17V15.3ZM0.286109 15.6077C0.537777 16.0875 0.939349 16.4776 1.43328 16.722L2.22776 15.2073C2.06312 15.1258 1.92926 14.9959 1.84537 14.8359L0.286109 15.6077ZM3.675 1.48957e-06C3.19939 1.48957e-06 2.79006 -0.000661486 2.45435 0.025986C2.10843 0.053441 1.76436 0.114063 1.43328 0.277935L2.22776 1.79264C2.27102 1.77123 2.35915 1.7392 2.59686 1.72034C2.84477 1.70066 3.17052 1.7 3.675 1.7V1.48957e-06ZM1.75 3.57C1.75 3.07993 1.75068 2.7635 1.77094 2.52267C1.79036 2.29175 1.82333 2.20613 1.84537 2.16411L0.286109 1.39233C0.117418 1.71395 0.0550128 2.04819 0.0267503 2.38423C-0.000680941 2.71034 1.53338e-06 3.10798 1.53338e-06 3.57H1.75ZM1.43328 0.277935C0.939349 0.522412 0.537777 0.91251 0.286109 1.39233L1.84537 2.16411C1.92926 2.00417 2.06312 1.87414 2.22776 1.79264L1.43328 0.277935Z" fill="black"/>
</svg>
